<svg width="889" height="428" viewBox="0 0 889 428" fill="none" xmlns="http://www.w3.org/2000/svg">
<path d="M258.899 97.6169L37.3634 172.674C34.6928 173.579 32.4909 175.508 31.2423 178.036C29.9936 180.565 29.8005 183.485 30.7053 186.156L51.1756 246.575C57.014 263.708 66.4205 279.408 78.7738 292.639C91.1271 305.869 106.146 316.328 122.84 323.326L91.9507 333.791C89.28 334.696 87.0782 336.625 85.8295 339.153C84.5809 341.681 84.3878 344.602 85.2926 347.273C86.1975 349.944 88.1262 352.145 90.6544 353.394C93.1827 354.643 96.1034 354.836 98.7741 353.931L320.31 278.873C322.981 277.969 325.182 276.04 326.431 273.512C327.68 270.983 327.873 268.063 326.968 265.392C326.063 262.721 324.134 260.519 321.606 259.271C319.078 258.022 316.157 257.829 313.486 258.734L282.597 269.199C293.388 250.305 299.2 228.979 299.486 207.222C312.009 202.101 322.108 192.397 327.725 180.089C333.343 167.78 334.055 153.793 329.718 140.977L326.307 130.907C321.782 117.554 312.139 106.545 299.498 100.302C286.856 94.0584 272.253 93.0927 258.899 97.6169ZM309.579 147.801C311.782 154.317 311.819 161.371 309.685 167.91C307.551 174.45 303.36 180.124 297.737 184.087C296.62 177.504 294.986 171.02 292.851 164.694L276.381 116.082C282.975 116.169 289.379 118.297 294.713 122.174C300.048 126.051 304.049 131.486 306.167 137.731L309.579 147.801ZM127.826 108.348L114.18 68.0688C113.275 65.3981 113.468 62.4773 114.716 59.9491C115.965 57.4208 118.167 55.4921 120.838 54.5872C123.508 53.6824 126.429 53.8755 128.957 55.1242C131.486 56.3728 133.414 58.5747 134.319 61.2453L147.966 101.525C148.871 104.195 148.678 107.116 147.429 109.644C146.18 112.173 143.979 114.101 141.308 115.006C138.637 115.911 135.716 115.718 133.188 114.469C130.66 113.22 128.731 111.019 127.826 108.348ZM168.106 94.7012L154.459 54.4219C153.554 51.7513 153.747 48.8305 154.996 46.3022C156.244 43.774 158.446 41.8453 161.117 40.9404C163.788 40.0356 166.708 40.2287 169.237 41.4774C171.765 42.726 173.694 44.9278 174.598 47.5985L188.245 87.8777C189.15 90.5484 188.957 93.4692 187.708 95.9974C186.46 98.5257 184.258 100.454 181.587 101.359C178.916 102.264 175.996 102.071 173.467 100.822C170.939 99.5737 169.01 97.3718 168.106 94.7012ZM87.5472 121.995L73.9003 81.7156C72.9955 79.0449 73.1886 76.1241 74.4373 73.5959C75.6859 71.0676 77.8878 69.1389 80.5584 68.2341C83.2291 67.3292 86.1499 67.5224 88.6781 68.771C91.2064 70.0196 93.1351 72.2215 94.0399 74.8922L107.687 115.171C108.592 117.842 108.398 120.763 107.15 123.291C105.901 125.819 103.699 127.748 101.029 128.653C98.358 129.558 95.4372 129.365 92.909 128.116C90.3807 126.867 88.452 124.665 87.5472 121.995Z" fill="black"/>
<path d="M475.5 195C415.222 195 368 222.557 368 257.731V365.269C368 400.443 415.222 428 475.5 428C535.778 428 583 400.443 583 365.269V257.731C583 222.557 535.778 195 475.5 195ZM565.083 311.5C565.083 322.276 556.259 333.265 540.885 341.656C523.573 351.099 500.348 356.308 475.5 356.308C450.652 356.308 427.427 351.099 410.115 341.656C394.741 333.265 385.917 322.276 385.917 311.5V292.86C405.02 309.663 437.685 320.462 475.5 320.462C513.315 320.462 545.98 309.618 565.083 292.86V311.5ZM540.885 395.425C523.573 404.868 500.348 410.077 475.5 410.077C450.652 410.077 427.427 404.868 410.115 395.425C394.741 387.035 385.917 376.045 385.917 365.269V346.629C405.02 363.432 437.685 374.231 475.5 374.231C513.315 374.231 545.98 363.387 565.083 346.629V365.269C565.083 376.045 556.259 387.035 540.885 395.425Z" fill="black"/>
<path d="M841.352 186.462C840.766 185.447 840.163 184.45 839.558 183.464L873.643 163.799C874.663 163.211 875.557 162.427 876.274 161.493C876.991 160.559 877.517 159.493 877.823 158.356C878.128 157.219 878.206 156.032 878.052 154.865C877.899 153.697 877.517 152.572 876.929 151.552C876.34 150.532 875.557 149.638 874.623 148.921C873.689 148.204 872.623 147.677 871.485 147.372C870.348 147.067 869.162 146.989 867.994 147.143C866.827 147.296 865.701 147.678 864.681 148.266L829.004 168.849C812.485 149.051 790.239 134.854 765.325 128.21C740.41 121.566 714.049 122.8 689.865 131.743L669.195 95.8234C668.006 93.7636 666.048 92.2602 663.752 91.644C661.455 91.0279 659.007 91.3493 656.947 92.5377C654.887 93.7261 653.384 95.6841 652.768 97.9809C652.152 100.278 652.473 102.725 653.662 104.785L673.502 139.172C658.311 147.398 644.958 158.637 634.259 172.201C623.561 185.765 615.743 201.368 611.282 218.058L604.644 242.801C603.412 247.392 604.055 252.285 606.431 256.402C608.806 260.519 612.72 263.524 617.311 264.756L825.045 320.484C829.636 321.716 834.529 321.073 838.646 318.698C842.763 316.322 845.768 312.409 847 307.818L853.966 281.852C858.29 265.909 859.402 249.266 857.237 232.89C855.071 216.514 849.671 200.732 841.352 186.462ZM693.838 238.894C691.27 238.205 688.964 236.771 687.212 234.771C685.459 232.772 684.339 230.298 683.993 227.662C683.647 225.026 684.09 222.346 685.266 219.962C686.443 217.578 688.3 215.597 690.603 214.268C692.906 212.939 695.551 212.323 698.204 212.498C700.857 212.673 703.398 213.63 705.507 215.249C707.616 216.868 709.197 219.077 710.051 221.594C710.905 224.112 710.993 226.826 710.304 229.394C709.38 232.838 707.127 235.773 704.039 237.554C700.951 239.336 697.281 239.818 693.838 238.894ZM771.738 259.792C769.17 259.104 766.864 257.669 765.112 255.669C763.359 253.67 762.239 251.196 761.893 248.56C761.547 245.924 761.99 243.244 763.167 240.86C764.343 238.476 766.2 236.495 768.503 235.166C770.806 233.838 773.451 233.222 776.104 233.396C778.757 233.571 781.298 234.528 783.407 236.148C785.516 237.767 787.097 239.975 787.951 242.492C788.805 245.01 788.893 247.725 788.204 250.292C787.281 253.736 785.027 256.671 781.939 258.453C778.851 260.234 775.181 260.716 771.738 259.792Z" fill="black"/>
</svg>
